<?xml version="1.0" encoding="utf-8"?>
<!-- Generator: Adobe Illustrator 16.0.3, SVG Export Plug-In . SVG Version: 6.00 Build 0)  -->
<!DOCTYPE svg PUBLIC "-//W3C//DTD SVG 1.1//EN" "http://www.w3.org/Graphics/SVG/1.1/DTD/svg11.dtd">
<svg version="1.1" id="圖層_1" xmlns="http://www.w3.org/2000/svg" xmlns:xlink="http://www.w3.org/1999/xlink" x="0px" y="0px"
	 width="256px" height="256px" viewBox="0 0 256 256" enable-background="new 0 0 256 256" xml:space="preserve">
<rect x="6.507" y="358.84" fill="#B4D198" width="242.987" height="242.986"/>
<rect x="6.051" y="6.279" fill="#00A199" width="243.441" height="243.442"/>
<g>
	<path fill="#DADF00" d="M224.727,29.728c2.895,0,5.241,1.725,5.241,3.871v19.987c0,2.138-2.347,3.863-5.241,3.863H31.381
		c-2.903,0-5.243-1.725-5.243-3.863V33.599c0-2.146,2.34-3.871,5.243-3.871H224.727z"/>
	<path fill="#DADF00" d="M202.467,71.628c-5.04-2.617-11.537-3.926-19.49-3.926h-34.04h-33.46H30.81
		c-2.719,0-4.469,1.356-5.243,8.117v148.679c0-0.164,1.355,1.772,4.072,1.772h34.209h9.434h4.823v-51.781h-0.169v-37.474
		c0-1.069,0.093-1.997,0.219-2.853c0.244-6.874,5.596-12.388,12.202-12.388c6.766,0,12.245,5.767,12.245,12.872v0.969v38.873v45.563
		v6.219h16.073h20.366c0.268,0,0.487-0.059,0.715-0.097v-4.927c0-0.131-0.025-0.253-0.025-0.384V113.98
		c0-0.105,0.025-0.195,0.025-0.301v-1.691v-5.402c0-6.766,5.486-12.253,12.252-12.253s12.253,5.487,12.253,12.253v5.402v108.614
		v5.516c0.312,0.063,0.598,0.152,0.968,0.152h41.319c3.099,0,4.841-1.545,5.236-4.653v-57.898v-29.102V84.29
		C210.615,78.467,207.509,74.247,202.467,71.628z"/>
</g>
<g>
	<path fill="#B04082" d="M224.772,382.246c2.898,0,5.233,1.722,5.233,3.863v19.95c0,2.134-2.335,3.855-5.233,3.855H31.789
		c-2.89,0-5.233-1.722-5.233-3.855v-19.95c0-2.142,2.344-3.863,5.233-3.863H224.772z"/>
	<path fill="#B04082" d="M202.563,424.067c-5.039-2.612-11.515-3.919-19.462-3.919h-33.967h-33.407h-84.51
		c-2.713,0-4.451,1.354-5.224,8.102v148.401c0-0.164,1.353,1.769,4.063,1.769h34.145h9.408h4.814v-51.684h-0.159v-37.404
		c0-1.066,0.081-1.993,0.208-2.847c0.243-6.862,5.587-12.364,12.18-12.364c6.754,0,12.23,5.755,12.23,12.849v0.966v38.801v45.477
		v6.207h16.045h20.326c0.262,0,0.479-0.059,0.716-0.096v-4.918c-0.009-0.131-0.025-0.253-0.025-0.384V466.34
		c0-0.105,0.025-0.194,0.025-0.299v-1.688v-5.393c0-6.753,5.475-12.229,12.229-12.229s12.231,5.477,12.231,12.229v5.393v108.41
		v5.505c0.302,0.063,0.587,0.152,0.956,0.152h41.243c3.091,0,4.838-1.542,5.233-4.644v-57.79v-29.047v-50.234
		C210.696,430.893,207.596,426.681,202.563,424.067z"/>
</g>
</svg>
